<svg style="enable-background:new 0 0 94 40" xmlns="http://www.w3.org/2000/svg"  viewBox="0 0 94 40"  y="0px" x="0px">
<style type="text/css">
	.st0{fill:#333333;}
</style>
	<path class="st0" d="m31.2 12.1c-0.4-1.1-0.8-2.3-1.4-3.6-0.5-1.3-1.2-2.4-2.1-3.5-0.8-1.1-1.9-1.9-3.2-2.6s-2.8-1-4.7-1c-2.5 0-4.5 0.5-6 1.4s-2.6 2.2-3.3 3.9c-0.7 1.7-1.2 3.6-1.4 6-0.1 2.3-0.2 4.8-0.2 7.6 0 3.6 0.2 6.6 0.6 8.9 0.4 2.4 1.1 4.2 2 5.6s2 2.4 3.4 2.9c1.4 0.6 3.1 0.8 5 0.8 1.6 0 3-0.3 4.2-0.9 1.3-0.6 2.4-1.4 3.4-2.5 1-1 1.8-2.2 2.4-3.5 0.7-1.3 1.1-2.7 1.5-4.1h0.8v11h-0.8c-0.2-0.4-0.4-0.7-0.6-0.9s-0.6-0.2-1.1-0.2c-0.4 0-1 0.1-1.6 0.3-0.7 0.2-1.4 0.4-2.3 0.6-0.8 0.3-1.8 0.5-2.8 0.7s-2.1 0.3-3.2 0.3c-2.5 0-5-0.5-7.3-1.5-2.4-1-4.4-2.3-6.2-4.1-1.8-1.7-3.2-3.7-4.3-6s-1.6-4.8-1.6-7.5c0-2.9 0.6-5.6 1.8-8s2.7-4.5 4.6-6.2 4-3 6.3-3.9 4.6-1.4 6.8-1.4c1.1 0 2.1 0.1 3.1 0.3s1.8 0.4 2.7 0.6c0.8 0.2 1.6 0.4 2.2 0.6 0.7 0.2 1.2 0.3 1.7 0.3s0.8-0.1 1.1-0.2c0.1 0 0.3-0.3 0.4-0.8h0.8v10.6h-0.7z"/>
	<path class="st0" d="m54.1 31.1c0.3-1.1 0.5-2.4 0.5-4 0-0.9-0.1-1.6-0.2-2.2s-0.3-1-0.6-1.3c-0.3-0.3-0.6-0.5-1-0.6s-0.9-0.2-1.5-0.2v-0.4h6.5v0.4c-0.5 0.1-0.9 0.2-1.2 0.3s-0.6 0.3-0.8 0.5-0.4 0.7-0.4 1.2c-0.1 0.5-0.2 1.2-0.2 2.1 0 0.4-0.1 0.9-0.1 1.5-0.1 0.6-0.1 1.2-0.3 1.8-0.1 0.6-0.3 1.2-0.5 1.9s-0.5 1.2-0.8 1.6l1.5 2.6c0.1 0.1 0.2 0.3 0.4 0.6 0.2 0.2 0.5 0.4 0.9 0.4 0.3 0 0.6-0.1 0.8-0.3s0.3-0.5 0.5-0.7c0.1-0.3 0.2-0.5 0.2-0.8v-0.5-0.3c0-0.1 0-0.2-0.1-0.3h0.4s0 0.1 0.1 0.2v0.3c0 0.1 0 0.3-0.1 0.8s-0.2 0.9-0.5 1.4c-0.3 0.5-0.7 0.9-1.2 1.3s-1.3 0.6-2.3 0.6c-0.9 0-1.7-0.2-2.2-0.6s-1-0.8-1.3-1.3c-0.3 0.3-0.6 0.5-0.9 0.7s-0.7 0.4-1.1 0.6-0.8 0.3-1.4 0.4-1.1 0.2-1.8 0.2c-1.6 0-2.9-0.3-3.9-0.8s-1.8-1.2-2.4-1.9-0.9-1.5-1.2-2.3-0.3-1.5-0.3-2c0-1 0.2-1.9 0.6-2.6 0.4-0.8 0.9-1.5 1.5-2.1s1.3-1.2 2-1.7 1.4-1 2.1-1.4c-0.3-0.9-0.6-1.6-0.8-2.2-0.2-0.5-0.3-1.1-0.3-1.6 0-0.7 0.1-1.3 0.4-1.9s0.6-1.2 1.1-1.6 1-0.9 1.5-1.2c0.6-0.3 1.2-0.4 1.8-0.4 0.4 0 0.8 0.1 1.2 0.2s0.7 0.3 1 0.6 0.5 0.6 0.7 1 0.2 0.9 0.2 1.5-0.2 1.3-0.5 2c-0.4 0.7-1.1 1.5-2.3 2.2l5.4 10.5c0.3-0.4 0.6-1.2 0.9-2.2zm-9.8-6c-0.1-0.3-0.2-0.5-0.3-0.6-0.4 0.3-0.8 0.7-1.2 0.9-0.3 0.3-0.6 0.6-0.8 0.9s-0.4 0.7-0.5 1c-0.1 0.4-0.2 0.8-0.2 1.3 0 0.4 0.1 0.9 0.2 1.5s0.4 1.3 0.6 2c0.3 0.7 0.6 1.4 1 2.1s0.8 1.3 1.2 1.9 0.9 1 1.4 1.4 1 0.5 1.5 0.5c0.6 0 1.1-0.1 1.6-0.4s1-0.6 1.5-1c-0.2-0.3-0.4-0.5-0.5-0.8-0.1-0.2-0.2-0.4-0.3-0.7l-4.8-9.1c-0.1-0.3-0.3-0.6-0.4-0.9zm5.8-7.5c-0.1-0.3-0.2-0.7-0.4-0.9-0.2-0.3-0.4-0.5-0.7-0.7s-0.6-0.3-1-0.3h-0.4c-0.2 0-0.5 0.1-0.7 0.2s-0.5 0.4-0.7 0.7c-0.1 0.4-0.2 0.8-0.2 1.4 0 0.3 0 0.7 0.1 1 0.1 0.4 0.2 0.8 0.4 1.2s0.3 0.8 0.5 1.2 0.4 0.8 0.6 1.1c0.2-0.1 0.5-0.3 0.8-0.5s0.6-0.5 0.8-0.8 0.5-0.7 0.7-1.1c0.2-0.4 0.3-0.9 0.3-1.4 0-0.4-0.1-0.8-0.1-1.1z"/>
	<path class="st0" d="m62.6 2.3v-0.8h7.9c1.5 0 2.9 0 4.3-0.1s2.9-0.1 4.3-0.1 2.8 0.1 4.3 0.4 2.9 0.7 4.1 1.4 2.2 1.5 3 2.7c0.8 1.1 1.2 2.5 1.2 4.2 0 1.5-0.4 2.7-1.2 3.8-0.8 1-1.7 1.9-2.8 2.5-1.1 0.7-2.3 1.2-3.5 1.5s-2.2 0.6-3 0.7v0.2c1.4 0.1 2.8 0.3 4.2 0.7 1.5 0.3 2.8 0.9 4 1.6s2.2 1.7 3 2.9 1.2 2.7 1.2 4.6c0 2-0.5 3.7-1.5 5s-2.3 2.4-3.7 3.1c-1.5 0.8-3 1.3-4.7 1.6s-3.2 0.4-4.5 0.4c-1.5 0-2.9 0-4.3-0.1s-2.9-0.1-4.3-0.1h-7.9v-0.7h4.8v-35.4h-4.9zm14.5 16c1.6 0 2.8-0.2 3.7-0.6s1.6-1 2-1.7c0.5-0.7 0.7-1.5 0.9-2.4 0.1-0.9 0.2-1.8 0.2-2.8 0-1.5-0.1-2.8-0.3-3.9s-0.6-2-1-2.7c-0.5-0.7-1.2-1.2-2-1.6-0.8-0.3-1.9-0.5-3.3-0.5-0.4 0-0.8 0-1.1 0.1-0.4 0-0.8 0.1-1.1 0.1v16.1h2zm0.8 19.7c1.1 0 2.1-0.1 3-0.4s1.6-0.8 2.3-1.5c0.6-0.7 1.1-1.7 1.4-3s0.5-3 0.5-5.1c0-0.6-0.1-1.4-0.2-2.4s-0.4-2-0.9-2.9c-0.5-1-1.2-1.8-2.1-2.5-1-0.7-2.3-1.1-4-1.1h-3v18.8c1 0 2 0.1 3 0.1z"/>
</svg>
