<?xml version="1.0" encoding="utf-8"?>
<!-- Generator: Adobe Illustrator 19.1.0, SVG Export Plug-In . SVG Version: 6.00 Build 0)  -->
<svg version="1.1" id="Слой_1" xmlns="http://www.w3.org/2000/svg" xmlns:xlink="http://www.w3.org/1999/xlink" x="0px" y="0px"
	 viewBox="0 0 94 40" style="enable-background:new 0 0 94 40;" xml:space="preserve">
<style type="text/css">
	.st0{fill:#333333;}
</style>
<g>
	<path class="st0" d="M31.2,12.1c-0.4-1.1-0.8-2.3-1.4-3.6c-0.5-1.3-1.2-2.4-2.1-3.5c-0.8-1.1-1.9-1.9-3.2-2.6c-1.3-0.7-2.8-1-4.7-1
		c-2.5,0-4.5,0.5-6,1.4s-2.6,2.2-3.3,3.9c-0.7,1.7-1.2,3.6-1.4,6C9,15,8.9,17.5,8.9,20.3c0,3.6,0.2,6.6,0.6,8.9
		c0.4,2.4,1.1,4.2,2,5.6c0.9,1.4,2,2.4,3.4,2.9c1.4,0.6,3.1,0.8,5,0.8c1.6,0,3-0.3,4.2-0.9c1.3-0.6,2.4-1.4,3.4-2.5
		c1-1,1.8-2.2,2.4-3.5c0.7-1.3,1.1-2.7,1.5-4.1h0.8v11h-0.8c-0.2-0.4-0.4-0.7-0.6-0.9c-0.2-0.2-0.6-0.2-1.1-0.2
		c-0.4,0-1,0.1-1.6,0.3c-0.7,0.2-1.4,0.4-2.3,0.6C25,38.6,24,38.8,23,39c-1,0.2-2.1,0.3-3.2,0.3c-2.5,0-5-0.5-7.3-1.5
		c-2.4-1-4.4-2.3-6.2-4.1C4.5,32,3.1,30,2,27.7c-1.1-2.3-1.6-4.8-1.6-7.5c0-2.9,0.6-5.6,1.8-8C3.4,9.8,4.9,7.7,6.8,6
		c1.9-1.7,4-3,6.3-3.9c2.3-0.9,4.6-1.4,6.8-1.4C21,0.7,22,0.8,23,1c1,0.2,1.8,0.4,2.7,0.6c0.8,0.2,1.6,0.4,2.2,0.6
		c0.7,0.2,1.2,0.3,1.7,0.3c0.5,0,0.8-0.1,1.1-0.2C30.8,2.3,31,2,31.1,1.5h0.8v10.6H31.2z"/>
	<path class="st0" d="M54.1,31.1c0.3-1.1,0.5-2.4,0.5-4c0-0.9-0.1-1.6-0.2-2.2s-0.3-1-0.6-1.3c-0.3-0.3-0.6-0.5-1-0.6
		c-0.4-0.1-0.9-0.2-1.5-0.2v-0.4h6.5v0.4c-0.5,0.1-0.9,0.2-1.2,0.3c-0.3,0.1-0.6,0.3-0.8,0.5s-0.4,0.7-0.4,1.2
		c-0.1,0.5-0.2,1.2-0.2,2.1c0,0.4-0.1,0.9-0.1,1.5c-0.1,0.6-0.1,1.2-0.3,1.8c-0.1,0.6-0.3,1.2-0.5,1.9s-0.5,1.2-0.8,1.6l1.5,2.6
		c0.1,0.1,0.2,0.3,0.4,0.6c0.2,0.2,0.5,0.4,0.9,0.4c0.3,0,0.6-0.1,0.8-0.3c0.2-0.2,0.3-0.5,0.5-0.7c0.1-0.3,0.2-0.5,0.2-0.8
		c0-0.3,0-0.4,0-0.5c0-0.1,0-0.2,0-0.3c0-0.1,0-0.2-0.1-0.3h0.4c0,0,0,0.1,0.1,0.2c0,0.1,0,0.2,0,0.3c0,0.1,0,0.3-0.1,0.8
		s-0.2,0.9-0.5,1.4c-0.3,0.5-0.7,0.9-1.2,1.3S55.1,39,54.1,39c-0.9,0-1.7-0.2-2.2-0.6s-1-0.8-1.3-1.3c-0.3,0.3-0.6,0.5-0.9,0.7
		c-0.3,0.2-0.7,0.4-1.1,0.6c-0.4,0.2-0.8,0.3-1.4,0.4S46.1,39,45.4,39c-1.6,0-2.9-0.3-3.9-0.8s-1.8-1.2-2.4-1.9s-0.9-1.5-1.2-2.3
		s-0.3-1.5-0.3-2c0-1,0.2-1.9,0.6-2.6c0.4-0.8,0.9-1.5,1.5-2.1c0.6-0.6,1.3-1.2,2-1.7c0.7-0.5,1.4-1,2.1-1.4
		c-0.3-0.9-0.6-1.6-0.8-2.2c-0.2-0.5-0.3-1.1-0.3-1.6c0-0.7,0.1-1.3,0.4-1.9s0.6-1.2,1.1-1.6s1-0.9,1.5-1.2c0.6-0.3,1.2-0.4,1.8-0.4
		c0.4,0,0.8,0.1,1.2,0.2c0.4,0.1,0.7,0.3,1,0.6c0.3,0.3,0.5,0.6,0.7,1c0.2,0.4,0.2,0.9,0.2,1.5c0,0.6-0.2,1.3-0.5,2
		c-0.4,0.7-1.1,1.5-2.3,2.2l5.4,10.5C53.5,32.9,53.8,32.1,54.1,31.1z M44.3,25.1c-0.1-0.3-0.2-0.5-0.3-0.6c-0.4,0.3-0.8,0.7-1.2,0.9
		c-0.3,0.3-0.6,0.6-0.8,0.9c-0.2,0.3-0.4,0.7-0.5,1c-0.1,0.4-0.2,0.8-0.2,1.3c0,0.4,0.1,0.9,0.2,1.5c0.1,0.6,0.4,1.3,0.6,2
		c0.3,0.7,0.6,1.4,1,2.1c0.4,0.7,0.8,1.3,1.2,1.9c0.4,0.6,0.9,1,1.4,1.4c0.5,0.4,1,0.5,1.5,0.5c0.6,0,1.1-0.1,1.6-0.4
		c0.5-0.3,1-0.6,1.5-1c-0.2-0.3-0.4-0.5-0.5-0.8c-0.1-0.2-0.2-0.4-0.3-0.7L44.7,26C44.6,25.7,44.4,25.4,44.3,25.1z M50.1,17.6
		c-0.1-0.3-0.2-0.7-0.4-0.9c-0.2-0.3-0.4-0.5-0.7-0.7s-0.6-0.3-1-0.3c-0.1,0-0.2,0-0.4,0c-0.2,0-0.5,0.1-0.7,0.2
		c-0.2,0.1-0.5,0.4-0.7,0.7C46.1,17,46,17.4,46,18c0,0.3,0,0.7,0.1,1c0.1,0.4,0.2,0.8,0.4,1.2c0.2,0.4,0.3,0.8,0.5,1.2
		c0.2,0.4,0.4,0.8,0.6,1.1c0.2-0.1,0.5-0.3,0.8-0.5c0.3-0.2,0.6-0.5,0.8-0.8s0.5-0.7,0.7-1.1c0.2-0.4,0.3-0.9,0.3-1.4
		C50.2,18.3,50.1,17.9,50.1,17.6z"/>
	<path class="st0" d="M62.6,2.3V1.5h7.9c1.5,0,2.9,0,4.3-0.1c1.4-0.1,2.9-0.1,4.3-0.1c1.4,0,2.8,0.1,4.3,0.4
		c1.5,0.3,2.9,0.7,4.1,1.4c1.2,0.7,2.2,1.5,3,2.7c0.8,1.1,1.2,2.5,1.2,4.2c0,1.5-0.4,2.7-1.2,3.8c-0.8,1-1.7,1.9-2.8,2.5
		c-1.1,0.7-2.3,1.2-3.5,1.5c-1.2,0.3-2.2,0.6-3,0.7v0.2c1.4,0.1,2.8,0.3,4.2,0.7c1.5,0.3,2.8,0.9,4,1.6c1.2,0.7,2.2,1.7,3,2.9
		c0.8,1.2,1.2,2.7,1.2,4.6c0,2-0.5,3.7-1.5,5c-1,1.3-2.3,2.4-3.7,3.1c-1.5,0.8-3,1.3-4.7,1.6c-1.7,0.3-3.2,0.4-4.5,0.4
		c-1.5,0-2.9,0-4.3-0.1s-2.9-0.1-4.3-0.1h-7.9v-0.7h4.8V2.3H62.6z M77.1,18.3c1.6,0,2.8-0.2,3.7-0.6s1.6-1,2-1.7
		c0.5-0.7,0.7-1.5,0.9-2.4c0.1-0.9,0.2-1.8,0.2-2.8c0-1.5-0.1-2.8-0.3-3.9c-0.2-1.1-0.6-2-1-2.7c-0.5-0.7-1.2-1.2-2-1.6
		c-0.8-0.3-1.9-0.5-3.3-0.5c-0.4,0-0.8,0-1.1,0.1c-0.4,0-0.8,0.1-1.1,0.1v16.1H77.1z M77.9,38c1.1,0,2.1-0.1,3-0.4
		c0.9-0.3,1.6-0.8,2.3-1.5c0.6-0.7,1.1-1.7,1.4-3c0.3-1.3,0.5-3,0.5-5.1c0-0.6-0.1-1.4-0.2-2.4c-0.1-1-0.4-2-0.9-2.9
		c-0.5-1-1.2-1.8-2.1-2.5c-1-0.7-2.3-1.1-4-1.1h-3v18.8C75.9,37.9,76.9,38,77.9,38z"/>
</g>
</svg>
